<?xml version="1.0" encoding="utf-8"?>

<!DOCTYPE svg PUBLIC "-//W3C//DTD SVG 1.1//EN" "http://www.w3.org/Graphics/SVG/1.1/DTD/svg11.dtd">
<!-- Uploaded to: SVG Repo, www.svgrepo.com, Generator: SVG Repo Mixer Tools -->
<svg height="800px" width="800px" version="1.1" id="_x32_" xmlns="http://www.w3.org/2000/svg" xmlns:xlink="http://www.w3.org/1999/xlink" 
	 viewBox="0 0 512 512"  xml:space="preserve">
<style type="text/css">
	.st0{fill:#000000;}
</style>
<g>
	<path class="st0" d="M441.881,178.592c31.057-10.731,50.153-74.037,33.715-100.664c0.611,17.095-30.14,30.042-40.864,11.664
		C427.796,59.81,485.389,30.876,512,27.103c-12.633-19.027-82.126-27.376-107.295,7.019c-16.949,23.152-11.778,38.306-34.258,29.728
		c-24.595-9.41-3.147-43.262,16.545-49.412C309.403,0.087,329.252,79.616,300.13,71.97c-29.136-7.638-1.86-32.294,1.31-35.464
		c-52.299-8.348-39.822,46.028-80.221,56.501c-23.942,8.974-37.855,10.739-50.748,12.976c-31.692,5.515-61.515,18.783-86.893,38.306
		c-7.654,5.377-15.055,11.327-22.083,17.935C20.647,200.789,0,252.951,0,305.059c0,35.41,9.521,70.952,28.801,102.291
		c4.946,8.219,10.628,16.132,17.006,23.679c2.459,3.024,5.125,5.988,7.844,8.898c38.627,40.857,90.731,61.496,142.835,61.496
		c23.538,0,47.09-4.293,69.485-12.787c57.222-18.852,105.141-63.52,125.749-125.054c4.605-13.733,7.584-27.612,9.082-41.445
		c1.115-10.258,5.606-22.586,9.517-31.706c12.045-28.17,46.212-38.237,54.514-51.436c18.592-29.552,3.552-48.121,3.552-48.121
		s-6.905,17.522-26.543,19.394C422.204,212.147,410.839,189.324,441.881,178.592z M83.303,253.34
		c4.888,17.782,7.898,38.573,7.83,58.83c0.069,12.641-1.134,25.054-3.605,36.396c-3.674,17.048-10.358,31.332-19.825,40.926
		c-0.909,0.894-1.814,1.803-2.78,2.59c-1.016,0.909-2.161,1.627-3.238,2.451c-0.016-0.038-0.042-0.068-0.058-0.092
		c-18.049-27.016-26.955-58.165-27.017-89.382c0.062-38.757,13.787-77.384,41.228-107.914c1.23-1.406,2.632-2.688,3.915-4.048
		c-0.325,2.2-0.737,4.369-0.958,6.608c-0.546,4.82-0.787,9.7-0.787,14.704C78.006,226.882,79.698,239.905,83.303,253.34z
		 M80.588,412.025c4.407-3.674,8.264-7.837,11.698-12.351c9.043-11.756,15.017-25.734,18.808-40.682
		c3.797-14.941,5.359-30.866,5.359-46.822c0-22.724-3.254-45.448-8.674-65.513c-3.078-11.274-4.46-21.998-4.46-32.248
		c0-15.01,2.887-29.11,7.886-42.362c0.718-2.016,1.582-3.987,2.422-5.958c25.481-15.262,54.094-22.907,82.806-22.907
		c43.019,0,85.717,16.942,117.618,50.688c3.735,3.956,7.169,8.027,10.4,12.221c-0.565,0.962-1.008,1.956-1.642,2.895
		c-0.187,0.244-0.359,0.55-0.538,0.787c-7.528,11.022-19.714,21.334-38.875,29.583c-32.73,14.039-57.016,36.649-72.862,62.26
		c-15.842,25.619-23.506,54.239-23.506,80.996c0,24.771,6.5,48.221,20.252,66.239c3.376,4.461,7.237,8.555,11.572,12.167
		c1.452,1.238,3.04,2.338,4.606,3.454c-1.333,0.221-2.651,0.496-3.976,0.672c-7.596,1.122-15.322,1.673-22.996,1.673
		c-43.011,0-85.784-16.942-117.678-50.68c-0.374-0.436-0.741-0.802-1.119-1.237c-0.111-0.123-0.194-0.237-0.298-0.352
		C78.476,413.721,79.58,412.904,80.588,412.025z M221.02,423.177c-5.606-11.274-8.672-25.314-8.672-40.567
		c0-21.937,6.389-46.158,19.706-67.674c13.382-21.517,33.498-40.376,61.339-52.315c18.511-7.89,32.852-18.256,43.217-30.132
		c0.966-1.093,1.844-2.208,2.742-3.316c0.282,0.535,0.626,1.046,0.909,1.589c12.053,23.182,17.98,48.648,17.98,74.175
		c0,43.018-16.938,85.792-50.68,117.682c-13.756,12.985-29.201,22.938-45.512,30.148c-2.567-0.268-5.034-0.665-7.34-1.268
		c-3.678-0.841-7.05-2.109-10.19-3.674C234.464,442.823,226.62,434.444,221.02,423.177z"/>
</g>
</svg>