<?xml version="1.0" encoding="iso-8859-1"?>
<!-- Uploaded to: SVG Repo, www.svgrepo.com, Generator: SVG Repo Mixer Tools -->
<!DOCTYPE svg PUBLIC "-//W3C//DTD SVG 1.1//EN" "http://www.w3.org/Graphics/SVG/1.1/DTD/svg11.dtd">
<svg fill="#000000" height="800px" width="800px" version="1.1" id="Capa_1" xmlns="http://www.w3.org/2000/svg" xmlns:xlink="http://www.w3.org/1999/xlink" 
	 viewBox="0 0 327.716 327.716" xml:space="preserve">
<g>
	<path d="M325.954,159.402c-1.943-3.438-5.271-5.889-9.131-6.726c-15.033-3.257-39.538-8.69-49.052-10.802
		c-7.584-45.996-38.158-84.749-81.778-102.659c-68.729-28.219-147.602,4.742-175.822,73.476
		c-13.67,33.294-13.556,69.919,0.321,103.128c13.877,33.207,39.854,59.022,73.146,72.691c16.409,6.738,33.795,10.089,51.166,10.088
		c20.361,0,40.695-4.606,59.38-13.765c11.551-4.898,20.527-13.978,25.296-25.592c4.802-11.694,4.762-24.558-0.112-36.222
		c-2.049-4.905-4.868-9.326-8.271-13.168c11.173-0.485,25.746-1.492,40.808-3.568c43.779-6.033,69.047-18.109,75.101-35.893
		C328.238,166.768,327.855,162.763,325.954,159.402z M204.874,259.331c-3.214,5.206-7.909,9.335-13.319,12.193l-3.151,1.665
		c-31.266,15.307-67.642,16.511-99.829,3.296c-30.08-12.351-53.551-35.675-66.088-65.678c-12.539-30.004-12.642-63.095-0.291-93.178
		c25.499-62.102,96.762-91.883,158.859-66.388c41.617,17.087,70.087,55.172,74.841,99.791c-20.615,24.72-50.661,40.456-82.881,43.31
		c-3.429,0.304-6.198,3.174-6.125,6.616c0.076,3.601,3.013,6.377,6.492,6.377c0.189,0,2.289-0.186,3.145-0.28
		c1.414-0.155,2.844-0.116,4.24,0.156c11.663,2.274,22.188,10.249,26.606,20.82C211.803,238.634,210.494,250.226,204.874,259.331z
		 M314.698,166.201c-2.438,7.164-14.053,20.222-64.436,27.186c-12.168,1.682-24.165,2.642-34.172,3.19
		c20.019-8.714,37.866-22.204,51.63-39.467c0.424-0.532,0.75-1.11,0.983-1.712c11.179,2.479,32.003,7.088,45.366,9.984
		c0.342,0.074,0.512,0.318,0.569,0.419C314.76,166.018,314.715,166.151,314.698,166.201z"/>
	<path d="M172.918,221.987c-10.936,0-19.833,8.897-19.833,19.833s8.897,19.833,19.833,19.833c10.936,0,19.833-8.897,19.833-19.833
		S183.853,221.987,172.918,221.987z M172.918,248.653c-3.768,0-6.834-3.065-6.834-6.833c0-3.768,3.066-6.833,6.834-6.833
		s6.833,3.065,6.833,6.833C179.751,245.588,176.685,248.653,172.918,248.653z"/>
</g>
</svg>