<?xml version="1.0" encoding="iso-8859-1"?>
<!-- Uploaded to: SVG Repo, www.svgrepo.com, Generator: SVG Repo Mixer Tools -->
<!DOCTYPE svg PUBLIC "-//W3C//DTD SVG 1.1//EN" "http://www.w3.org/Graphics/SVG/1.1/DTD/svg11.dtd">
<svg fill="#000000" height="800px" width="800px" version="1.1" id="Capa_1" xmlns="http://www.w3.org/2000/svg" xmlns:xlink="http://www.w3.org/1999/xlink" 
	 viewBox="0 0 297 297" xml:space="preserve">
<g>
	<path d="M165.109,207.9c-2.115,0-4.198,0.855-5.689,2.356c-1.5,1.5-2.366,3.574-2.366,5.699c0,2.124,0.865,4.198,2.366,5.699
		c1.5,1.499,3.574,2.356,5.689,2.356c2.124,0,4.198-0.856,5.699-2.356c1.499-1.5,2.356-3.575,2.356-5.699
		c0-2.125-0.856-4.198-2.356-5.699C169.307,208.755,167.233,207.9,165.109,207.9z"/>
	<path d="M165.109,158.064c-2.115,0-4.188,0.855-5.689,2.356c-1.5,1.5-2.366,3.574-2.366,5.699c0,2.124,0.865,4.198,2.366,5.688
		c1.5,1.51,3.574,2.367,5.689,2.367c2.124,0,4.198-0.856,5.699-2.367c1.499-1.49,2.356-3.564,2.356-5.688
		c0-2.125-0.856-4.198-2.356-5.699C169.307,158.92,167.233,158.064,165.109,158.064z"/>
	<path d="M165.109,108.229c-2.115,0-4.198,0.855-5.689,2.356c-1.5,1.5-2.366,3.574-2.366,5.699c0,2.124,0.865,4.198,2.366,5.688
		c1.5,1.51,3.574,2.367,5.689,2.367c2.124,0,4.198-0.856,5.699-2.367c1.499-1.49,2.356-3.564,2.356-5.688
		c0-2.125-0.856-4.198-2.356-5.699C169.307,109.084,167.233,108.229,165.109,108.229z"/>
	<path d="M291.269,46.15L240.93,22.125c-1.335-0.637-2.739-0.946-4.127-0.974c-0.071-0.002-0.133-0.008-0.21-0.008h-52.856
		c-3.152,0-6.122,1.477-8.026,3.99l-26.696,35.25l-27.839-35.395c-1.909-2.427-4.826-3.844-7.914-3.844H60.407
		c-0.073,0-0.132,0.006-0.199,0.008c-1.392,0.027-2.799,0.335-4.138,0.974L5.731,46.15C2.23,47.82,0,51.356,0,55.235v81.687
		c0,3.457,1.773,6.671,4.697,8.515c2.923,1.842,6.586,2.06,9.708,0.57l35.934-17.15V265.79c0,5.56,4.508,10.068,10.068,10.068
		h176.186c5.56,0,10.068-4.508,10.068-10.068V128.858l35.934,17.15c3.122,1.49,6.785,1.273,9.708-0.57
		c2.924-1.844,4.697-5.058,4.697-8.515V55.235C297,51.356,294.77,47.82,291.269,46.15z M57.168,103.811l-37.033,17.15V61.586
		l42.55-20.308h31.738L57.168,103.811z M70.475,120.33l43.306-72.176l22.668,28.821l-12.586,16.619
		c-1.325,1.749-2.042,3.884-2.042,6.078v156.051H70.475V120.33z M141.956,255.722V103.053l42.667-56.337l41.903,69.838v139.167
		H141.956z M276.864,120.961l-33.929-16.192l-38.094-63.491h29.473l42.55,20.308V120.961z"/>
</g>
</svg>