<?xml version="1.0" encoding="iso-8859-1"?>
<!-- Uploaded to: SVG Repo, www.svgrepo.com, Generator: SVG Repo Mixer Tools -->
<svg fill="#000000" height="800px" width="800px" version="1.1" id="Layer_1" xmlns="http://www.w3.org/2000/svg" xmlns:xlink="http://www.w3.org/1999/xlink" 
	 viewBox="0 0 472.615 472.615" xml:space="preserve">
<g>
	<g>
		<path d="M414.817,81.565c-9.656,10.31-18.269,21.373-25.741,33.072l31.85,18.387l-9.846,17.057l-31.81-18.362
			c-6.111,11.711-11.08,23.949-15.041,36.543l35.395,9.483l-5.096,19.02l-35.344-9.469c-2.825,12.795-4.5,25.878-5.072,39.161
			h36.507v19.692h-36.507c0.573,13.281,2.247,26.363,5.07,39.156l35.346-9.474l5.096,19.02l-35.398,9.488
			c3.961,12.593,8.93,24.836,15.041,36.55l31.813-18.365l9.846,17.057l-31.852,18.39c7.473,11.702,16.088,22.764,25.746,33.074
			c35.974-41.463,57.795-95.535,57.795-154.737C472.615,177.103,450.792,123.029,414.817,81.565z"/>
	</g>
</g>
<g>
	<g>
		<path d="M372.012,367.82l-32.166,18.569L330,369.331l32.228-18.605c-6.953-13.217-12.626-27.029-17.052-41.282l-35.99,9.647
			l-5.096-19.02l36.082-9.67c-3.241-14.45-5.157-29.233-5.752-44.253H296.99v-19.692h37.431c0.596-15.019,2.512-29.805,5.754-44.255
			l-36.084-9.668l5.096-19.019l35.994,9.644c4.427-14.25,10.098-28.063,17.05-41.279L330,103.273l9.846-17.057l32.169,18.572
			c8.387-13.24,18.066-25.764,29.013-37.37l0.243-0.216C358.687,25.644,300.51,0,236.308,0C172.114,0,113.942,25.639,71.359,67.187
			l0.223,0.23c10.947,11.606,20.626,24.13,29.013,37.368l32.169-18.57l9.846,17.057l-32.231,18.606
			c6.953,13.216,12.623,27.029,17.05,41.279l35.995-9.644l5.096,19.019l-36.087,9.668c3.242,14.45,5.157,29.236,5.752,44.255h37.431
			v19.692h-37.431c-0.595,15.019-2.509,29.802-5.75,44.25l36.085,9.673l-5.096,19.02l-35.992-9.647
			c-4.427,14.253-10.098,28.065-17.051,41.282l32.229,18.605l-9.846,17.057l-32.166-18.567
			c-8.384,13.233-18.062,25.755-29.007,37.355l-0.26,0.224c42.586,41.566,100.769,67.215,164.977,67.215
			c64.192,0,122.364-25.639,164.948-67.185l-0.236-0.253C390.073,393.574,380.396,381.052,372.012,367.82z"/>
	</g>
</g>
<g>
	<g>
		<path d="M81.99,226.457h36.502c-0.572-13.281-2.246-26.366-5.071-39.161l-35.34,9.469l-5.096-19.02l35.392-9.483
			c-3.961-12.594-8.929-24.832-15.039-36.546l-31.814,18.365l-9.846-17.057l31.854-18.39c-7.47-11.696-16.083-22.759-25.737-33.067
			C21.822,123.031,0,177.103,0,236.308c0,59.202,21.82,113.271,57.792,154.735c9.658-10.308,18.27-21.37,25.743-33.072
			l-31.857-18.39l9.846-17.057l31.817,18.365c6.112-11.714,11.08-23.954,15.041-36.55l-35.397-9.488l5.096-19.02l35.343,9.474
			c2.823-12.793,4.496-25.875,5.068-39.156H81.99V226.457z"/>
	</g>
</g>
</svg>