<?xml version="1.0" encoding="iso-8859-1"?>
<!-- Uploaded to: SVG Repo, www.svgrepo.com, Generator: SVG Repo Mixer Tools -->
<svg fill="#000000" height="800px" width="800px" version="1.1" id="Layer_1" xmlns="http://www.w3.org/2000/svg" xmlns:xlink="http://www.w3.org/1999/xlink" 
	 viewBox="0 0 512 512" xml:space="preserve">
<g>
	<g>
		<path d="M437.019,74.981C388.668,26.628,324.38,0,256,0S123.332,26.628,74.981,74.981C26.629,123.333,0,187.621,0,256
			s26.628,132.668,74.981,181.019C123.333,485.371,187.62,512,256,512c68.38,0,132.668-26.628,181.019-74.981
			C485.371,388.667,512,324.379,512,256S485.372,123.332,437.019,74.981z M378.704,67.913c38.394,25.132,68.661,61.685,85.935,104.8
			c-45.208-31.311-92.88-51.714-142.236-60.821c5.59-17.097,16.091-29.504,31.329-36.973
			C363.729,70.02,373.402,68.437,378.704,67.913z M255.091,31.358c0.303-0.001,0.605-0.012,0.909-0.012
			c29.302,0,57.308,5.647,82.998,15.896c-17.723,8.929-38.826,26.419-48.034,60.385c-16.761-1.462-33.673-1.667-50.686-0.602
			C245.044,71.975,251.4,45.231,255.091,31.358z M222.047,33.91c-4.24,17.333-9.803,43.78-13.879,76.614
			c-15.626,2.415-31.311,5.871-47.016,10.382c-0.738-6.958-1.819-13.334-3.077-19.07c-3.787-17.273-9.547-30.924-14.412-40.326
			C167.398,47.747,193.869,38.199,222.047,33.91z M117.483,79.249c3.576,7.485,7.622,17.922,10.31,30.881
			c1.426,6.876,2.364,13.832,2.821,20.86c-34.163,12.756-62.488,28.328-83.146,41.461C62.306,135.549,86.658,103.46,117.483,79.249z
			 M72.463,385.405C46.576,348.797,31.347,304.146,31.347,256c0-12.184,0.989-24.138,2.864-35.8
			c11.452-9.113,45.831-34.654,94.874-54.917c-3.088,20.501-10.031,41.493-20.824,62.823
			C76.907,290.075,71.132,346.535,72.463,385.405z M256,480.653c-56.24,0-107.715-20.775-147.164-55.05
			c-4.213-18.389-17.439-94.73,27.396-183.344c16.848-33.298,23.804-63.354,25.505-88.809c2.563-0.799,5.156-1.578,7.774-2.333
			c11.871-3.42,23.666-6.188,35.382-8.317c-0.801,10.151-1.423,20.723-1.799,31.671c-1.895,55.137,2.825,108.193,14.031,157.695
			c12.134,53.607,31.944,103.134,58.979,147.578C269.479,480.333,262.776,480.653,256,480.653z M402.464,426.204
			c-26.35,22.707-58.013,39.402-92.84,47.964c-66.7-102.732-77.858-218.05-75.233-297.692c0.436-13.201,1.254-25.873,2.331-37.894
			c16.894-1.395,33.612-1.418,50.144-0.07c0.372,43.802,26.689,83.024,50.768,113.293c6.971,8.761,14.681,17.079,22.137,25.121
			c17.419,18.79,33.873,36.539,40.709,58.718C409.279,364.19,406.192,399.904,402.464,426.204z M430.437,326.411
			c-8.942-29.014-28.633-50.255-47.677-70.797c-7.385-7.966-14.361-15.491-20.595-23.326c-19.842-24.941-41.541-56.586-43.75-89.49
			c55.65,10.603,109.039,37.181,159.727,79.635c1.649,10.954,2.51,22.161,2.51,33.567c0,49.426-16.057,95.165-43.211,132.303
			C438.099,367.704,436.562,346.281,430.437,326.411z"/>
	</g>
</g>
</svg>