<?xml version="1.0" encoding="iso-8859-1"?>
<!-- Uploaded to: SVG Repo, www.svgrepo.com, Generator: SVG Repo Mixer Tools -->
<svg fill="#000000" height="800px" width="800px" version="1.1" id="Layer_1" xmlns="http://www.w3.org/2000/svg" xmlns:xlink="http://www.w3.org/1999/xlink" 
	 viewBox="0 0 512 512" xml:space="preserve">
<g>
	<g>
		<path d="M475.563,19.516H36.437C16.346,19.516,0,35.862,0,55.953v278.195c0,20.091,16.346,36.437,36.437,36.437h106.831
			c2.006,31.268,1.422,67.044,1.018,91.584c-0.132,8.072-0.248,15.041-0.248,20.377c0,5.488,4.449,9.937,9.937,9.937
			s9.937-4.449,9.937-9.937c0-4.694,0.094-10.821,0.209-17.882h46.165v17.882c0,5.488,4.449,9.937,9.937,9.937
			s9.937-4.449,9.937-9.937v-17.882h51.674v17.882c0,5.488,4.449,9.937,9.937,9.937s9.937-4.449,9.937-9.937v-17.882h46.165
			c0.115,7.061,0.209,13.186,0.209,17.882c0,5.488,4.449,9.937,9.937,9.937s9.937-4.449,9.937-9.937
			c0-5.336-0.114-12.305-0.246-20.377c-0.403-24.54-0.988-60.316,1.018-91.584h106.831c20.091,0,36.437-16.346,36.437-36.437V55.953
			C512,35.862,495.654,19.516,475.563,19.516z M160.009,338.917h50.278v11.794h-48.773
			C161.075,346.638,160.575,342.696,160.009,338.917z M163.167,370.585h47.12v27.165h-46.006
			C164.069,388.622,163.717,379.466,163.167,370.585z M210.289,444.79h-45.867c0.103-8.504,0.17-17.678,0.129-27.165h45.739V444.79z
			 M281.838,444.79h-51.674v-27.165h51.674V444.79z M281.838,397.75h-51.674v-27.165h51.674V397.75z M281.838,350.711h-51.674
			v-11.794h51.674V350.711z M301.713,444.79v-27.165h45.74c-0.042,9.487,0.024,18.661,0.127,27.165H301.713z M347.719,397.75
			h-46.006v-27.165h47.122C348.283,379.466,347.931,388.623,347.719,397.75z M350.485,350.711h-48.773v-11.794h50.279
			C351.425,342.696,350.925,346.638,350.485,350.711z M364,319.042c-0.042-0.001-0.083,0-0.125,0h-72.037
			c-0.021,0-0.042-0.003-0.064-0.003c-0.021,0-0.042,0.003-0.064,0.003h-71.421c-0.021,0-0.042-0.003-0.064-0.003
			c-0.021,0-0.042,0.003-0.064,0.003h-71.997c-0.064,0-0.126-0.001-0.189,0h-22.009c-8.402,0-15.237-6.836-15.237-15.237
			c0-8.402,6.836-15.237,15.237-15.237h260.064c8.4,0,15.233,6.832,15.237,15.231c0,0.003,0,0.004,0,0.007c0,0.001,0,0.004,0,0.007
			c-0.004,8.399-6.837,15.231-15.237,15.231H364z M309.966,268.693h-40.608L290.95,220.1l20.952,9.309
			C307.985,242.211,307.332,255.634,309.966,268.693z M233.476,194.56c-7.087,10.756-17.43,19.012-29.503,23.552
			c-0.493-3.664-0.775-7.375-0.775-11.129c0-8.44,1.277-16.586,3.637-24.262L233.476,194.56z M214.931,164.571
			c6.157-10.266,14.475-19.089,24.324-25.841c4.718,11.999,5.521,25.203,2.29,37.668L214.931,164.571z M251.84,202.72l20.947,9.308
			l-25.179,56.664h-16.735c-9.753-8.699-17.189-19.411-21.88-31.274C226.873,231.218,242.078,218.935,251.84,202.72z
			 M256.952,129.516c9.017-3.381,18.77-5.242,28.952-5.242c8.44,0,16.585,1.277,24.262,3.637l-29.309,65.955l-20.947-9.308
			C265.401,166.449,264.33,146.938,256.952,129.516z M299.02,201.937l29.295-65.927c15.513,9.305,27.724,23.552,34.473,40.547
			c-17.867,6.202-33.062,18.481-42.821,34.689L299.02,201.937z M330.238,237.558l26.667,11.849
			c-4.264,7.123-9.622,13.629-15.965,19.285h-10.572C327.592,258.44,327.558,247.774,330.238,237.558z M338.333,219.406
			c7.09-10.759,17.434-19.015,29.51-23.553c0.493,3.644,0.77,7.354,0.77,11.13c0,8.338-1.268,16.493-3.645,24.259L338.333,219.406z
			 M388.489,206.983c0-56.565-46.018-102.583-102.583-102.583c-56.565,0-102.583,46.018-102.583,102.583
			c0,22.558,7.342,44.101,20.627,61.71h-77.982c-11.604,0-21.907,5.662-28.303,14.364V96.234h316.672v186.823
			c-6.397-8.703-16.7-14.364-28.303-14.364h-18.168C381.15,251.086,388.489,229.553,388.489,206.983z M492.125,334.148
			c0,9.132-7.429,16.562-16.562,16.562H370.472c0.474-4.114,1.016-8.06,1.632-11.794h13.93c15.91,0,29.374-10.64,33.672-25.175h4.57
			c5.488,0,9.937-4.449,9.937-9.937V86.296c0-5.488-4.449-9.937-9.937-9.937H87.729c-5.488,0-9.937,4.449-9.937,9.937v217.507
			c0,5.488,4.449,9.937,9.937,9.937h4.57c4.298,14.535,17.761,25.175,33.672,25.175h13.93c0.616,3.734,1.158,7.68,1.631,11.794
			H36.437c-9.133,0-16.562-7.431-16.562-16.562V55.953c0-9.133,7.429-16.562,16.562-16.562h439.126
			c9.133,0,16.562,7.429,16.562,16.562V334.148z"/>
	</g>
</g>
</svg>