<?xml version="1.0" encoding="iso-8859-1"?>
<!-- Uploaded to: SVG Repo, www.svgrepo.com, Generator: SVG Repo Mixer Tools -->
<svg fill="#000000" height="800px" width="800px" version="1.1" id="Layer_1" xmlns="http://www.w3.org/2000/svg" xmlns:xlink="http://www.w3.org/1999/xlink" 
	 viewBox="0 0 512 512" xml:space="preserve">
<g>
	<g>
		<path d="M437.014,74.986c-16.768-16.778-35.517-30.981-55.966-42.43c-9.781,3.66-20.605,9.729-29.896,19.813
			c-7.289,7.915-13.629,18.301-17.748,31.93c33.077,5.892,65.549,16.007,97.217,30.272c0.01,0,0.021,0,0.021,0
			c18.926,8.53,37.571,18.53,55.893,30C474.074,118.771,457.453,95.413,437.014,74.986z"/>
	</g>
</g>
<g>
	<g>
		<path d="M438.808,386.711c-0.938-12.065-2.92-23.89-6.34-34.995c-8.394-27.227-28.405-48.802-49.573-71.659
			c-8.968-9.666-18.238-19.656-26.591-30.157c-29.166-36.674-61.086-84.298-60.731-137.27c-21.314-1.856-42.889-1.825-64.693,0.073
			c-1.376,15.037-2.43,30.939-2.982,47.529c-2.836,85.403,7.435,204.685,65.997,317.294c5.005,9.646,10.386,19.25,16.132,28.78
			c15.579-3.358,30.814-8.175,45.632-14.432c30.491-12.899,57.863-31.356,81.357-54.86c0.334-0.334,0.667-0.678,1.001-1.011
			C439.496,419.944,440.111,403.114,438.808,386.711z"/>
	</g>
</g>
<g>
	<g>
		<path d="M258.023,480.707c-0.334,0.01-0.678,0.01-1.012,0c0.334,0,0.667,0,1.012-0.01
			c-20.344-41.398-35.934-85.893-46.601-133.016c-13.473-59.511-19.145-123.297-16.872-189.586
			c0.49-14.182,1.314-27.852,2.398-40.929c-15.131,2.638-30.355,6.163-45.694,10.574c-3.671,1.064-7.289,2.169-10.855,3.285
			c-1.867,30.751-10.136,67.227-30.626,107.739c-28.155,55.653-37.07,107.186-39,144.507v0.01
			c-0.292,5.495-0.417,10.688-0.438,15.537c-0.052,13.504,0.73,25.423,1.825,35.329c0.939,0.959,1.877,1.919,2.826,2.868
			c23.494,23.504,50.866,41.961,81.357,54.86C187.928,505.222,221.453,512,256,512c6.121,0,12.211-0.209,18.259-0.636
			C268.545,501.343,263.133,491.124,258.023,480.707z"/>
	</g>
</g>
<g>
	<g>
		<path d="M47.759,171.411c-0.01,0-0.01,0-0.01,0c-16.517,9.281-30.313,18.217-40.918,25.6C2.284,216.208,0,235.927,0,256
			c0,34.547,6.778,68.072,20.125,99.658c4.88,11.533,10.553,22.628,16.997,33.233c0.532-17.008,2.367-36.997,6.569-59.073
			c6.058-31.909,17.07-68.176,36.278-106.133c14.901-29.448,22.597-56.341,25.725-80.168
			C83.922,152.328,64.443,162.036,47.759,171.411z"/>
	</g>
</g>
<g>
	<g>
		<path d="M505.441,198.178c-13.838-10.542-27.842-20.115-41.992-28.739c-0.01-0.01-0.01-0.01-0.021-0.021
			c-43.39-26.424-88.218-43.88-134.34-52.295c1.606,41.304,28.645,80.919,53.359,111.983c7.56,9.52,15.996,18.613,24.933,28.249
			c22.607,24.39,45.965,49.584,56.716,83.63c0.094,0.292,0.188,0.584,0.282,0.886c5.037,16.288,7.477,33.494,8.248,50.647
			c7.383-11.7,13.817-24.005,19.25-36.862C505.222,324.072,512,290.547,512,256C512,236.333,509.8,217.011,505.441,198.178z"/>
	</g>
</g>
<g>
	<g>
		<path d="M156.342,20.125c-10.886,4.599-21.366,9.917-31.419,15.913c3.598,8.572,7.174,18.832,10.011,30.605v0.01
			c0.344,1.397,0.678,2.815,0.991,4.254c1.658,7.55,3.045,16.059,3.921,25.371c0.73-0.209,1.439-0.417,2.159-0.626
			c19.531-5.631,39.02-9.885,58.447-12.816c2.065-16.893,4.463-32.409,6.934-46.278c2.211-12.419,4.484-23.535,6.622-33.15
			C194.237,6.674,174.956,12.263,156.342,20.125z"/>
	</g>
</g>
<g>
	<g>
		<path d="M256,0c-2.294,0-4.588,0.031-6.882,0.094c-2.096,8.759-4.432,19.375-6.778,31.596c0,0.01,0,0.01,0,0.01
			c-2.669,13.869-5.349,29.792-7.685,47.383c21.94-1.512,43.734-1.293,65.319,0.699c4.161-16.153,10.574-29.25,18.102-39.813
			c7.539-10.595,16.205-18.666,24.87-24.818C315.135,5.099,285.948,0,256,0z"/>
	</g>
</g>
<g>
	<g>
		<path d="M105.341,89.261c-1.992-13.139-5.193-24.443-8.603-33.713c-7.57,6.027-14.828,12.513-21.752,19.437
			c-20.803,20.793-37.654,44.631-50.189,70.971c15.36-8.895,33.16-18.207,53.087-26.976c0-0.01,0-0.01,0.01-0.01
			c9.302-4.098,19.072-8.081,29.271-11.856C106.832,100.836,106.196,94.882,105.341,89.261z"/>
	</g>
</g>
</svg>