<?xml version="1.0" encoding="utf-8"?>

<!DOCTYPE svg PUBLIC "-//W3C//DTD SVG 1.1//EN" "http://www.w3.org/Graphics/SVG/1.1/DTD/svg11.dtd">
<!-- Uploaded to: SVG Repo, www.svgrepo.com, Generator: SVG Repo Mixer Tools -->
<svg height="800px" width="800px" version="1.1" id="_x32_" xmlns="http://www.w3.org/2000/svg" xmlns:xlink="http://www.w3.org/1999/xlink" 
	 viewBox="0 0 512 512"  xml:space="preserve">
<style type="text/css">
	.st0{fill:#000000;}
</style>
<g>
	<path class="st0" d="M288.373,211.383c-18.025,0-35.318,3.272-51.228,9.226c-2.399-3.995-4.946-7.92-7.628-11.915
		c-10.978-16.278-14.753-34.224-14.753-51.298c0-20.785,5.741-40.044,10.098-50.795c4.435-11.048,6.543-23.105,6.543-34.956
		c0-17.506-4.507-34.729-14.101-48.389c-4.797-6.834-10.9-12.645-18.379-16.79c-7.416-4.144-16.207-6.536-25.652-6.464
		c-9.523-0.071-18.237,2.32-25.724,6.464c-11.19,6.181-19.33,16.208-24.638,27.611c-5.301,11.482-7.841,24.418-7.841,37.568
		c0,11.85,2.107,23.907,6.536,34.956c4.364,10.751,10.105,30.01,10.105,50.795c0,17.074-3.782,35.02-14.752,51.298
		c-13.952,20.565-23.979,40.477-30.45,61.836c-6.464,21.367-9.374,44.11-9.374,70.345c0,15.186,1.022,31.606,2.761,49.701
		c6.613,67.719,29.577,115.32,29.868,115.974l2.689,5.45h121.565l2.689-5.45c0.078-0.15,1.746-3.633,4.286-9.956
		c14.824,5.088,30.812,7.848,47.382,7.848c80.946,0,146.494-65.619,146.494-146.494
		C434.867,277.002,369.319,211.383,288.373,211.383z M144.93,34.368c3.342-4.719,7.337-8.501,11.992-11.041
		c4.648-2.548,9.878-3.995,16.35-3.995c6.393,0,11.624,1.448,16.278,3.995c6.898,3.852,12.496,10.318,16.492,18.89
		c3.924,8.501,6.032,18.819,6.032,29.428c0,9.523-1.746,19.259-5.159,27.76c-0.802,1.966-1.597,4.144-2.398,6.464H141.95
		c-0.795-2.32-1.596-4.499-2.399-6.464c-3.413-8.501-5.158-18.238-5.158-27.76C134.321,57.552,138.174,43.814,144.93,34.368z
		 M199.209,124.327c-1.668,7.777-3.051,16.35-3.484,25.582h-44.982c-0.433-9.232-1.817-17.804-3.484-25.582H199.209z
		 M230.893,467.748c-0.071,0.292-0.142,0.504-0.22,0.795c-2.902,8.65-5.521,15.626-7.48,20.565c-0.22,0.44-0.369,0.873-0.511,1.234
		c-0.362,0.873-0.653,1.604-1.015,2.328h-96.864c-5.89-13.88-20.784-53.115-25.652-103.981c-1.746-17.662-2.69-33.43-2.69-47.814
		c0-24.852,2.69-45.494,8.502-64.746c5.812-19.259,14.824-37.206,27.98-56.606c10.971-16.208,15.91-33.722,17.506-50.213h45.565
		c1.597,16.491,6.543,34.005,17.514,50.213c2.107,3.122,4.066,6.174,5.883,9.154c4.073,6.394,7.628,12.646,10.68,18.89
		c4.726,9.452,8.508,18.827,11.41,28.563c5.812,19.252,8.501,39.894,8.501,64.746c0,14.383-0.944,30.222-2.612,47.814
		C244.192,420.807,237.145,448.347,230.893,467.748z M376.585,446.09c-22.594,22.602-53.768,36.552-88.212,36.552
		c-13.951,0-27.321-2.256-39.895-6.543c6.834-20.565,14.682-50.354,18.095-85.523c1.745-18.095,2.76-34.516,2.76-49.701
		c0-26.235-2.91-48.978-9.374-70.345c-3.193-10.46-7.195-20.565-12.134-30.592c12.716-4.357,26.377-6.756,40.548-6.756
		c34.444,0,65.619,13.952,88.212,36.553c22.602,22.594,36.482,53.697,36.482,88.213C413.068,392.393,399.187,423.489,376.585,446.09
		z"/>
	<path class="st0" d="M378.196,358.934c-8.494,0-15.377,8.253-15.377,18.436c0,10.176,6.884,18.429,15.377,18.429
		c8.488,0,15.364-8.253,15.364-18.429C393.56,367.187,386.684,358.934,378.196,358.934z"/>
	<path class="st0" d="M332.355,310.368c-9.012,2.299-14.278,12.149-11.78,21.999c2.512,9.877,11.858,16.009,20.87,13.716
		c9.019-2.292,14.292-12.148,11.78-22.012C350.72,314.2,341.381,308.084,332.355,310.368z"/>
	<path class="st0" d="M315.786,370.118c-9.588-0.369-17.691,7.557-18.096,17.74c-0.404,10.162,7.04,18.719,16.634,19.11
		c9.594,0.368,17.684-7.572,18.095-17.741C332.823,379.059,325.38,370.509,315.786,370.118z"/>
</g>
</svg>