<?xml version="1.0" encoding="iso-8859-1"?>
<!-- Uploaded to: SVG Repo, www.svgrepo.com, Generator: SVG Repo Mixer Tools -->
<!DOCTYPE svg PUBLIC "-//W3C//DTD SVG 1.1//EN" "http://www.w3.org/Graphics/SVG/1.1/DTD/svg11.dtd">
<svg fill="#000000" height="800px" width="800px" version="1.1" id="Capa_1" xmlns="http://www.w3.org/2000/svg" xmlns:xlink="http://www.w3.org/1999/xlink" 
	 viewBox="0 0 297 297" xml:space="preserve">
<g>
	<path d="M136.964,62.447h22.944c1.033-6.711,2.517-12.204,3.989-15.574c4.508-10.317,4.443-12.095,4.335-15.038
		c-0.025-0.683,0-1.41,0-2.24c0-8.519-6.326-21.125-19.796-21.125c-13.47,0-19.796,12.605-19.796,21.125c0,0.83,0.025,1.557,0,2.24
		c-0.108,2.943-0.174,4.721,4.335,15.038C134.447,50.243,135.93,55.736,136.964,62.447z"/>
	<path d="M138.067,72.623c0.231,3.535,0.316,7.239,0.214,11.035h20.31c-0.103-3.796-0.017-7.5,0.213-11.035H138.067z"/>
	<path d="M202.386,102.099h16.55c0.854-6.677,2.264-12.163,3.663-15.363c3.638-8.324,3.586-9.714,3.502-12.015
		c-0.021-0.573,0-1.183,0-1.88c0-6.668-4.936-16.534-15.439-16.534c-10.504,0-15.439,9.867-15.439,16.534
		c0,0.697,0.021,1.307,0,1.88c-0.085,2.302-0.136,3.691,3.502,12.015C200.122,89.936,201.532,95.423,202.386,102.099z"/>
	<path d="M218.305,120.574c-0.17-2.821-0.211-5.603-0.142-8.299h-15.003c0.068,2.696,0.027,5.477-0.142,8.299H218.305z"/>
	<path d="M262.278,133.67c0.165,2.719,0.207,5.557,0.093,8.449h11.202c-0.115-2.892-0.073-5.73,0.092-8.449H262.278z"/>
	<path d="M260.994,123.494h13.954c0.661-3.307,1.504-6.152,2.444-8.304c3.017-6.901,2.975-8.013,2.908-9.857
		c-0.018-0.495,0-1.022,0-1.625c0-5.346-3.943-13.257-12.329-13.257c-8.386,0-12.311,7.911-12.311,13.257
		c0,0.601,0.018,1.129,0,1.624c-0.068,1.843-0.127,2.955,2.889,9.858C259.49,117.342,260.334,120.187,260.994,123.494z"/>
	<path d="M251.359,175.379c3.081,9.855,4.599,20.581,4.599,32.316c0,15.949-3.847,35.496-9.414,51.03
		c1.831,5.078,3.868,9.503,5.97,12.731h30.915C290.582,260.472,297,235.693,297,218.128c0-17.785-4.528-32.414-13.845-44.724
		c-4.5-5.947-7.158-13.418-8.51-21.109h-13.345C259.947,159.985,255.859,169.433,251.359,175.379z"/>
	<path d="M188.88,164.142c-3.211-13.474-8.841-25.488-17.012-36.283c-7.351-9.713-11.059-21.924-12.534-34.025h-21.797
		c-1.475,12.101-5.183,24.312-12.534,34.025c-8.17,10.795-13.801,22.809-17.012,36.283c11.604-7.696,25.507-12.193,40.444-12.193
		C163.373,151.948,177.275,156.445,188.88,164.142z"/>
	<path d="M148.435,162.124c-34.85,0-63.202,28.353-63.202,63.202s28.353,63.202,63.202,63.202s63.202-28.353,63.202-63.202
		S183.285,162.124,148.435,162.124z M148.435,195.967c0-5.844,4.754-10.597,10.597-10.597c5.844,0,10.597,4.754,10.597,10.597
		c0,5.844-4.754,10.598-10.597,10.598C153.189,206.566,148.435,201.811,148.435,195.967z M172.312,226.485
		c-5.844,0-10.597-4.754-10.597-10.597s4.754-10.597,10.597-10.597s10.598,4.754,10.598,10.597S178.156,226.485,172.312,226.485z
		 M185.593,206.566c-5.844,0-10.598-4.755-10.598-10.598c0-5.844,4.754-10.597,10.598-10.597c5.844,0,10.597,4.754,10.597,10.597
		C196.19,201.811,191.436,206.566,185.593,206.566z"/>
	<path d="M219.521,130.749h-17.72c-1.213,6.605-3.317,13.095-6.617,18.877c2.805,7.736,4.747,15.944,5.884,24.647
		c12.826,13.219,20.745,31.224,20.745,51.053c0,17.465-6.143,33.516-16.368,46.129h23.922c8.62-12.889,16.416-42.71,16.416-63.761
		c0-21.166-5.398-38.588-16.504-53.261C224.097,147.586,221.083,139.255,219.521,130.749z"/>
	<path d="M78.064,102.099h16.55c0.854-6.677,2.264-12.163,3.663-15.363c3.638-8.324,3.586-9.714,3.502-12.015
		c-0.021-0.573,0-1.183,0-1.88c0-6.668-4.936-16.534-15.439-16.534c-10.504,0-15.439,9.867-15.439,16.534
		c0,0.697,0.021,1.307,0,1.88c-0.084,2.302-0.136,3.691,3.502,12.015C75.8,89.936,77.211,95.423,78.064,102.099z"/>
	<path d="M93.983,120.574c-0.17-2.821-0.211-5.603-0.143-8.299H78.838c0.068,2.696,0.027,5.477-0.143,8.299H93.983z"/>
	<path d="M23.335,133.67c0.165,2.719,0.207,5.557,0.093,8.449h11.202c-0.115-2.892-0.073-5.73,0.093-8.449H23.335z"/>
	<path d="M22.051,123.494h13.954c0.661-3.307,1.504-6.152,2.444-8.304c3.016-6.902,2.975-8.014,2.908-9.858
		c-0.018-0.495,0-1.023,0-1.624c0-5.346-3.943-13.257-12.329-13.257c-8.386,0-12.329,7.911-12.329,13.257
		c0,0.602,0.018,1.13,0,1.625c-0.068,1.843-0.109,2.955,2.908,9.857C20.547,117.342,21.391,120.187,22.051,123.494z"/>
	<path d="M45.641,175.379c-4.5-5.947-8.588-15.394-9.94-23.085H22.355c-1.352,7.691-4.01,15.163-8.51,21.109
		C4.528,185.714,0,200.343,0,218.128c0,17.565,6.418,42.344,13.571,53.328h30.914c2.102-3.228,4.139-7.653,5.97-12.731
		c-5.568-15.533-9.415-35.081-9.415-51.03C41.042,195.96,42.56,185.235,45.641,175.379z"/>
	<path d="M95.932,174.273c1.137-8.704,3.08-16.911,5.884-24.647c-3.3-5.781-5.404-12.271-6.617-18.877h-17.72
		c-1.562,8.506-4.576,16.837-9.758,23.684c-11.106,14.673-16.504,32.095-16.504,53.261c0,21.051,7.796,50.872,16.416,63.761h23.922
		c-10.226-12.613-16.368-28.664-16.368-46.129C75.187,205.497,83.106,187.492,95.932,174.273z"/>
</g>
</svg>