<?xml version="1.0" encoding="iso-8859-1"?>
<!-- Uploaded to: SVG Repo, www.svgrepo.com, Generator: SVG Repo Mixer Tools -->
<svg height="800px" width="800px" version="1.1" id="Capa_1" xmlns="http://www.w3.org/2000/svg" xmlns:xlink="http://www.w3.org/1999/xlink" 
	 viewBox="0 0 233.666 233.666" xml:space="preserve">
<g>
	<g>
		<g>
			<path style="fill:#010002;" d="M22.267,134.926l7.763,9.063h0.032l2.583,25.234h1.356l2.593-25.234h0.021l7.769-9.063
				c0,0-4.928,2.054-10.896,2.054C27.52,136.979,22.267,134.926,22.267,134.926z"/>
			<path style="fill:#010002;" d="M33.33,67.197C14.934,67.197,0,82.119,0,100.523c0,18.396,14.934,33.321,33.33,33.321
				c18.395,0,33.319-14.925,33.319-33.321C66.643,82.119,51.725,67.197,33.33,67.197z M33.758,124.742
				c-3.041,0-5.506-2.466-5.506-5.507c0-0.055,0.007-0.108,0.008-0.163c0.95,2.092,3.052,3.549,5.498,3.549s4.548-1.457,5.498-3.549
				c0.002,0.055,0.008,0.108,0.008,0.163C39.265,122.276,36.799,124.742,33.758,124.742z M33.758,112.319
				c-3.041,0-5.506-2.466-5.506-5.507c0-0.056,0.007-0.108,0.008-0.163c0.95,2.091,3.052,3.548,5.498,3.548s4.548-1.457,5.498-3.548
				c0.002,0.055,0.008,0.107,0.008,0.163C39.265,109.854,36.799,112.319,33.758,112.319z M43.996,101.53
				c0.95,2.092,3.052,3.549,5.498,3.549s4.548-1.457,5.498-3.549c0.001,0.055,0.008,0.107,0.008,0.164
				c0,3.041-2.465,5.506-5.506,5.506s-5.506-2.465-5.506-5.506C43.988,101.64,43.994,101.585,43.996,101.53z M49.889,119.072
				c-3.041,0-5.506-2.466-5.506-5.506c0-0.057,0.006-0.109,0.008-0.164c0.95,2.091,3.052,3.549,5.498,3.549s4.548-1.458,5.498-3.549
				c0.001,0.055,0.008,0.107,0.008,0.164C55.395,116.607,52.93,119.072,49.889,119.072z"/>
			<polygon style="fill:#010002;" points="221.977,52.702 176.583,116.834 188.264,116.834 233.666,52.702 			"/>
			<path style="fill:#010002;" d="M166.241,131.444H59.888c0,27.342,25.145,49.52,56.178,49.52
				c27.343,0,50.093-17.219,55.127-40.021l12.44-17.574h-11.678L166.241,131.444z M116.414,171.052
				c-31.558-1.477-42.475-24.328-42.927-25.296l3.893-1.817c0.416,0.885,10.372,21.453,39.227,22.813L116.414,171.052z"/>
		</g>
	</g>
</g>
</svg>