<?xml version="1.0" encoding="iso-8859-1"?>
<!-- Uploaded to: SVG Repo, www.svgrepo.com, Generator: SVG Repo Mixer Tools -->
<svg fill="#000000" height="800px" width="800px" version="1.1" id="Capa_1" xmlns="http://www.w3.org/2000/svg" xmlns:xlink="http://www.w3.org/1999/xlink" 
	 viewBox="0 0 611.998 611.998" xml:space="preserve">
<g>
	<path d="M210.69,255.564c-34.414,0-62.41,27.998-62.41,62.41s27.998,62.41,62.41,62.41c34.532,0,76.98-42.505,76.98-77.085
		C287.67,273.856,258.173,255.564,210.69,255.564z M210.69,354.408c-20.091,0-36.433-16.344-36.433-36.433
		s16.344-36.433,36.433-36.433c18.942,0,51.002,4.582,51.002,21.759C261.692,323.361,230.711,354.408,210.69,354.408z
		 M401.31,255.564c-47.483,0-76.98,18.292-76.98,47.737c0,34.58,42.447,77.085,76.98,77.085c34.414,0,62.41-27.998,62.41-62.41
		S435.722,255.564,401.31,255.564z M401.31,354.408c-20.021,0-51.002-31.047-51.002-51.108c0-17.175,32.06-21.759,51.002-21.759
		c20.091,0,36.433,16.344,36.433,36.433S421.398,354.408,401.31,354.408z"/>
	<path d="M557.623,273.508c-1.299-59.319-23.452-116.226-62.716-160.791c-37.588-42.663-88.288-71.265-143.754-81.332v-2.216
		C351.151,13.085,338.066,0,321.982,0h-31.968c-16.082,0-29.167,13.085-29.167,29.167v2.216
		c-55.47,10.067-106.168,38.669-143.756,81.332C77.827,157.28,55.674,214.187,54.375,273.506
		c-15.167,1.249-27.131,13.966-27.131,29.447v31.161c0,16.306,13.267,29.57,29.572,29.57h9.43
		c15.954,60.056,46.498,119.445,84.741,164.308c46.848,54.957,100.451,84.005,155.012,84.005s108.165-29.049,155.012-84.005
		c38.245-44.863,68.787-104.252,84.741-164.308h9.43c16.304,0,29.57-13.267,29.57-29.57v-31.161
		C584.752,287.474,572.788,274.755,557.623,273.508z M286.827,29.167c0-1.758,1.431-3.189,3.189-3.189h31.968
		c1.76,0,3.191,1.431,3.191,3.189v43.622h-38.347V29.167H286.827z M53.22,334.116v-31.161c0-1.982,1.613-3.593,3.595-3.593h43.219
		v38.347H56.815C54.833,337.709,53.22,336.096,53.22,334.116z M441.241,511.143c-52.756,61.889-102.665,74.879-135.243,74.879
		c-95.745,0-181.01-110.407-212.838-222.336h19.863c7.174,0,12.989-5.815,12.989-12.989v-64.325c0-7.174-5.815-12.989-12.989-12.989
		H80.365c2.634-105.085,78.388-194.792,180.484-215.542v27.936c0,7.174,5.815,12.989,12.989,12.989h64.324
		c7.174,0,12.989-5.815,12.989-12.989V57.842C453.245,78.592,529,168.299,531.633,273.384h-32.658
		c-7.174,0-12.989,5.815-12.989,12.989v64.325c0,7.174,5.815,12.989,12.989,12.989h19.819
		C503.386,417.794,475.642,470.79,441.241,511.143z M558.774,334.116c0,1.982-1.613,3.593-3.593,3.593h-43.219v-38.347h43.219
		c1.98,0,3.593,1.613,3.593,3.593V334.116z"/>
	<path d="M419.85,498.095c-5.289-5.289-4.217-14.935,2.394-21.545c6.611-6.611,16.257-7.682,21.545-2.394s4.217,14.935-2.394,21.545
		C434.785,502.312,425.138,503.384,419.85,498.095z M170.599,495.7c-6.611-6.611-7.682-16.257-2.394-21.545
		s14.935-4.217,21.545,2.394s7.682,16.257,2.394,21.545S177.21,502.31,170.599,495.7z M250.983,430.259
		c9.349,0,16.927,7.579,16.927,16.927s-7.579,16.927-16.927,16.927s-16.927-7.579-16.927-16.927S241.635,430.259,250.983,430.259z
		 M250.983,477.656c9.349,0,16.927,7.579,16.927,16.927s-7.579,16.927-16.927,16.927s-16.927-7.579-16.927-16.927
		S241.635,477.656,250.983,477.656z M250.983,525.053c9.349,0,16.927,7.579,16.927,16.927s-7.579,16.927-16.927,16.927
		s-16.927-7.579-16.927-16.927S241.635,525.053,250.983,525.053z M361.015,430.259c9.349,0,16.927,7.579,16.927,16.927
		s-7.579,16.927-16.927,16.927c-9.349,0-16.927-7.579-16.927-16.927S351.666,430.259,361.015,430.259z M361.015,477.656
		c9.349,0,16.927,7.579,16.927,16.927s-7.579,16.927-16.927,16.927c-9.349,0-16.927-7.579-16.927-16.927
		S351.666,477.656,361.015,477.656z M361.015,525.053c9.349,0,16.927,7.579,16.927,16.927s-7.579,16.927-16.927,16.927
		c-9.349,0-16.927-7.579-16.927-16.927S351.666,525.053,361.015,525.053z"/>
	<path d="M250.983,113.708c9.349,0,16.927,7.579,16.927,16.927s-7.579,16.927-16.927,16.927s-16.927-7.579-16.927-16.927
		S241.635,113.708,250.983,113.708z M250.983,161.107c9.349,0,16.927,7.579,16.927,16.927c0,9.349-7.579,16.927-16.927,16.927
		s-16.927-7.579-16.927-16.927C234.056,168.686,241.635,161.107,250.983,161.107z M250.983,208.504
		c9.349,0,16.927,7.579,16.927,16.927c0,9.349-7.579,16.927-16.927,16.927s-16.927-7.579-16.927-16.927
		C234.056,216.083,241.635,208.504,250.983,208.504z M361.015,113.708c9.349,0,16.927,7.579,16.927,16.927
		s-7.579,16.927-16.927,16.927c-9.349,0-16.927-7.579-16.927-16.927S351.666,113.708,361.015,113.708z M361.015,161.107
		c9.349,0,16.927,7.579,16.927,16.927c0,9.349-7.579,16.927-16.927,16.927c-9.349,0-16.927-7.579-16.927-16.927
		C344.087,168.686,351.666,161.107,361.015,161.107z M361.015,208.504c9.349,0,16.927,7.579,16.927,16.927
		c0,9.349-7.579,16.927-16.927,16.927c-9.349,0-16.927-7.579-16.927-16.927C344.087,216.083,351.666,208.504,361.015,208.504z"/>
</g>
</svg>