<?xml version="1.0" encoding="iso-8859-1"?>
<!-- Uploaded to: SVG Repo, www.svgrepo.com, Generator: SVG Repo Mixer Tools -->
<svg fill="#000000" height="800px" width="800px" version="1.1" id="Layer_1" xmlns="http://www.w3.org/2000/svg" xmlns:xlink="http://www.w3.org/1999/xlink" 
	 viewBox="0 0 511.999 511.999" xml:space="preserve">
<g>
	<g>
		<path d="M466.579,397.526H306.351l-19.928-39.112L456.505,24.612L408.2,0l-152.2,298.708L103.801,0L55.496,24.612l170.082,333.802
			l-19.928,39.112H102.882v15.211h56.036v15.2h-56.036v15.211h56.036v53.641H45.422c-12.91,0-23.414-10.504-23.414-23.414v-37.226
			c0-12.909,10.504-23.412,23.414-23.412h37.177v-15.211H45.422c-21.298,0-38.625,17.326-38.625,38.623v37.226
			c0,21.298,17.327,38.625,38.625,38.625h139.079c14.737,0,28.385-8.574,34.797-21.849l36.701-72.031l36.702,72.032
			c6.412,13.275,20.06,21.848,34.797,21.848h139.079c21.298,0,38.625-17.327,38.625-38.625v-37.226
			C505.204,414.852,487.877,397.526,466.579,397.526z M414.846,20.458l21.198,10.801L277.887,341.661l-4.03-7.908l-9.32-18.294
			L414.846,20.458z M205.707,483.322l-0.08,0.162c-3.879,8.082-12.171,13.305-21.126,13.305h-10.373v-84.053h40.841l19.144-37.57
			l13.351,26.202L205.707,483.322z M337.871,496.789h-10.373c-8.953,0-17.245-5.223-21.124-13.305l-41.84-82.115l0.001-0.002
			l-30.421-59.705l-0.001,0.001L75.956,31.259l21.198-10.801L247.464,315.46l30.421,59.706v-0.001l19.144,37.572h40.841V496.789z
			 M489.994,473.375c0,12.911-10.504,23.414-23.414,23.414H353.083v-84.053h113.497c12.91,0,23.414,10.503,23.414,23.412V473.375z"
			/>
	</g>
</g>
</svg>