<?xml version="1.0" encoding="iso-8859-1"?>
<!-- Uploaded to: SVG Repo, www.svgrepo.com, Generator: SVG Repo Mixer Tools -->
<!DOCTYPE svg PUBLIC "-//W3C//DTD SVG 1.1//EN" "http://www.w3.org/Graphics/SVG/1.1/DTD/svg11.dtd">
<svg fill="#000000" height="800px" width="800px" version="1.1" id="Capa_1" xmlns="http://www.w3.org/2000/svg" xmlns:xlink="http://www.w3.org/1999/xlink" 
	 viewBox="0 0 372.523 372.523" xml:space="preserve">
<g>
	<path d="M290.547,64.634H81.977C36.774,64.634,0,101.409,0,146.611v79.302c0,45.202,36.774,81.977,81.977,81.977h208.57
		c45.202,0,81.977-36.774,81.977-81.977v-79.302C372.523,101.409,335.749,64.634,290.547,64.634z M319.939,198.636
		c-5.233-2.455-8.875-7.76-8.875-13.913s3.642-11.458,8.875-13.913V198.636z M179.762,205.935
		c-8.255-2.735-14.232-10.513-14.232-19.673s5.978-16.938,14.232-19.673V205.935z M192.762,166.589
		c8.254,2.735,14.231,10.513,14.231,19.673s-5.977,16.938-14.231,19.673V166.589z M52.583,170.808
		c5.235,2.455,8.878,7.76,8.878,13.915s-3.643,11.46-8.878,13.915V170.808z M13,225.913v-79.302
		c0-22.058,10.42-41.716,26.583-54.351v188.004C23.42,267.629,13,247.971,13,225.913z M52.583,288.296v-75.958
		c12.524-2.946,21.878-14.206,21.878-27.616s-9.354-24.669-21.878-27.616v-72.88c8.923-4.221,18.885-6.593,29.394-6.593h97.785
		v75.53c-15.5,3.039-27.232,16.721-27.232,33.097s11.732,30.059,27.232,33.097v75.53H81.977
		C71.468,294.889,61.506,292.517,52.583,288.296z M192.762,294.889v-75.53c15.499-3.039,27.231-16.721,27.231-33.097
		s-11.732-30.059-27.231-33.097v-75.53h97.785c10.508,0,20.47,2.372,29.393,6.593v72.881c-12.523,2.947-21.875,14.206-21.875,27.615
		s9.352,24.668,21.875,27.615v75.959c-8.923,4.221-18.884,6.593-29.393,6.593H192.762z M359.523,225.913
		c0,22.059-10.421,41.717-26.584,54.352V92.259c16.163,12.635,26.584,32.293,26.584,54.352V225.913z"/>
	<path d="M96.023,95.833c-18.601,0-33.732,15.132-33.732,33.732s15.132,33.732,33.732,33.732s33.732-15.132,33.732-33.732
		S114.624,95.833,96.023,95.833z M96.023,150.297c-11.432,0-20.732-9.3-20.732-20.732s9.301-20.732,20.732-20.732
		s20.732,9.3,20.732,20.732S107.455,150.297,96.023,150.297z"/>
	<path d="M96.023,209.226c-18.601,0-33.732,15.132-33.732,33.732c0,18.6,15.132,33.732,33.732,33.732s33.732-15.132,33.732-33.732
		C129.756,224.358,114.624,209.226,96.023,209.226z M96.023,263.69c-11.432,0-20.732-9.3-20.732-20.732
		c0-11.432,9.301-20.732,20.732-20.732s20.732,9.3,20.732,20.732C116.756,254.39,107.455,263.69,96.023,263.69z"/>
	<path d="M276.499,163.297c18.601,0,33.732-15.132,33.732-33.732S295.1,95.833,276.499,95.833c-18.6,0-33.731,15.132-33.731,33.732
		S257.899,163.297,276.499,163.297z M276.499,108.833c11.432,0,20.732,9.3,20.732,20.732s-9.301,20.732-20.732,20.732
		s-20.731-9.3-20.731-20.732S265.067,108.833,276.499,108.833z"/>
	<path d="M276.499,209.226c-18.6,0-33.731,15.132-33.731,33.732c0,18.6,15.132,33.732,33.731,33.732
		c18.601,0,33.732-15.132,33.732-33.732C310.231,224.358,295.1,209.226,276.499,209.226z M276.499,263.69
		c-11.432,0-20.731-9.3-20.731-20.732c0-11.432,9.3-20.732,20.731-20.732s20.732,9.3,20.732,20.732
		C297.231,254.39,287.931,263.69,276.499,263.69z"/>
</g>
</svg>