<?xml version="1.0" encoding="iso-8859-1"?>
<!-- Uploaded to: SVG Repo, www.svgrepo.com, Generator: SVG Repo Mixer Tools -->
<!DOCTYPE svg PUBLIC "-//W3C//DTD SVG 1.1//EN" "http://www.w3.org/Graphics/SVG/1.1/DTD/svg11.dtd">
<svg fill="#000000" version="1.1" id="Capa_1" xmlns="http://www.w3.org/2000/svg" xmlns:xlink="http://www.w3.org/1999/xlink" 
	 width="800px" height="800px" viewBox="0 0 526.053 526.053"
	 xml:space="preserve">
<g>
	<g>
		<path d="M286.4,0.939C161.647-1.365,55.227,122.574,31.741,152.007c-2.716,3.385-1.311,6.197,3.031,6.197
			c23.399,0,95.156,0,162.448,0c-1.023,4.265-2.257,9.314-3.672,14.956l-155.84,7.86c-8.463,0.44-16.524,6.866-18.762,14.965
			c-4.274,15.51-11.246,44.026-15.434,78.011c-0.144,0.784-0.239,1.521-0.249,2.199c-7.133,59.843-5.393,135.893,34.473,187.941
			c-4.15,34.234,4.169,50.069,10.509,56.907c2.955,3.184,9.715,4.542,14.019,3.978c54.803-7.114,114.845-48.94,134.028-63.236
			c3.471-2.592,9.763-4.647,14.104-4.657c113.334-0.077,292.718-83.605,313.21-234.721C544.559,67.752,427.935,3.569,286.4,0.939z
			 M216.919,158.204c22.874,0,44.58,0,62.911,0c24.854,0,41.425,3.28,52.546,7.937l-118.794,5.996
			C214.911,166.734,216.01,162.105,216.919,158.204z M94.48,197.305l94.066-4.743c-2.132,8.052-4.504,16.792-7.115,26.086
			c-40.583-0.765-68.917-3.691-88.654-7.344C93.496,205.663,94.05,200.958,94.48,197.305z M90.292,230.229
			c22.51,4.131,51.093,6.608,85.651,7.44c-0.918,3.108-1.846,6.244-2.812,9.429c-33.334-1.272-61.659-1.301-85.211-0.144
			C88.791,241.054,89.584,235.469,90.292,230.229z M84.995,266.184c20.282-1.062,47.028-1.329,82.256-0.096
			c-2.572,8.08-5.259,16.295-8.08,24.576c-26.268-0.65-53.856-2.199-77.476-4.428C82.862,279.39,83.971,272.677,84.995,266.184z
			 M152.544,309.636c-4.485,12.45-9.218,24.892-14.19,37.017c-24.92-0.144-48.367-0.86-68.152-1.731
			c2.955-13.109,5.661-26.497,8.109-39.655C104.206,307.848,131.851,309.062,152.544,309.636z M75.097,198.29
			c-0.306,2.543-0.66,5.432-1.081,8.711c-9.123-2.63-15.175-5.336-19.096-7.698L75.097,198.29z M35.48,208.178
			c6.952,7.287,19.01,13.234,36.031,17.853c-0.927,6.818-1.989,14.287-3.175,22.252c-18.025,1.635-32.235,4.217-42.744,7.708
			C28.882,235.612,32.774,218.744,35.48,208.178z M65.334,267.638c-0.87,5.402-1.798,10.948-2.764,16.562
			c-17.557-2.171-31.25-4.752-37.877-7.611C29.188,274.034,40.003,270.133,65.334,267.638z M20.821,294.871
			c9.772,3.424,23.237,6.092,38.393,8.147c-2.543,13.675-5.355,27.512-8.405,40.956c-13.598-0.736-24.336-1.463-31.183-1.96
			C19.023,325.959,19.568,310.009,20.821,294.871z M31.158,410.606c-5.298-15.673-8.501-32.389-10.194-49.295
			c6.264,0.459,14.832,1.033,25.274,1.635C41.667,380.762,36.637,397.209,31.158,410.606z M49.125,443.521
			c-0.727,0.038-1.434,0.277-2.151,0.487c-2.065-3.213-3.959-6.541-5.747-9.916c9.294-17.241,17.452-42.391,24.432-70.132
			c18.637,0.88,40.708,1.636,64.442,1.884c-12.499,28.076-26.288,53.521-41.071,72.618
			C71.894,441.933,57.483,443.128,49.125,443.521z M197.583,380.666c-3.127,3.012-7.966,8.128-11.131,11.102
			c-20.712,19.46-45.623,31.614-68.936,39.226c12.039-19.02,23.256-41.357,33.517-65.072c21.956-0.067,44.724-0.641,67.129-1.979
			C211.516,368.416,204.641,373.867,197.583,380.666z M298.889,334.986c-40.134,8.357-91.561,11.273-139.833,11.666
			c10.614-26.498,20.072-53.952,28.152-79.732c34.75,1.616,76.777,4.562,127.583,9.323
			C307.399,299.021,302.034,320.862,298.889,334.986z M348.164,204.84c-10.423,13.55-19.431,32.78-26.909,52.823
			c-48.186-4.581-90.958-7.793-128.261-9.648c6.273-21.028,11.551-40.373,15.711-56.467l143.868-7.268
			c0.928,2.429,1.377,4.743,1.502,6.78C354.342,195.393,350.804,201.398,348.164,204.84z"/>
	</g>
</g>
</svg>