<?xml version="1.0" encoding="iso-8859-1"?>
<!-- Uploaded to: SVG Repo, www.svgrepo.com, Generator: SVG Repo Mixer Tools -->
<svg fill="#000000" height="800px" width="800px" version="1.1" id="Layer_1" xmlns="http://www.w3.org/2000/svg" xmlns:xlink="http://www.w3.org/1999/xlink" 
	 viewBox="0 0 511.999 511.999" xml:space="preserve">
<g>
	<g>
		<path d="M511.937,250.375l-0.675-30.079l-1.623,1.191c-5.151-38.36-18.903-74.845-40.542-107.277l0.051-0.16l-4.557-6.395
			c-6.126-8.598-12.773-16.787-19.884-24.528c-3.535-3.849-7.185-7.585-10.942-11.206c-0.092-0.089-0.186-0.177-0.279-0.265
			c-2.333-2.242-4.708-4.438-7.122-6.59c-0.318-0.283-0.637-0.564-0.957-0.845c-27.326-24.113-59.646-42.376-94.547-53.032
			c-0.004-0.001-0.007-0.002-0.011-0.003l-28.765-8.782l0.624,1.919c-15.342-2.831-30.966-4.263-46.709-4.263
			c-25.295,0-50.026,3.654-73.6,10.694l-0.041-0.028l-0.885,0.297c-38.489,11.654-73.847,32.39-103.475,61.092
			c-0.626,0.604-1.247,1.213-1.868,1.823c-0.369,0.365-0.745,0.719-1.112,1.085c-0.204,0.204-0.399,0.413-0.602,0.616
			c-7.252,7.275-14.066,14.988-20.394,23.096c-0.03,0.039-0.061,0.078-0.092,0.117c-1.184,1.518-2.351,3.048-3.5,4.594
			c-0.125,0.168-0.253,0.334-0.377,0.502c-0.916,1.239-1.818,2.489-2.711,3.746c-1.748,2.448-3.452,4.921-5.107,7.423l-15.38,22.861
			l1.933-0.036c-17.712,33.994-27.576,71.75-28.63,111.011L0,249.074l0.036,7.846c0.018,3.809,0.128,7.613,0.317,11.41
			c0.037,0.789,0.089,1.574,0.134,2.361c0.051,0.866,0.098,1.733,0.159,2.598c3.143,47.443,19.195,92.373,46.469,130.698
			c2.122,2.998,4.305,5.953,6.559,8.859l18.443,23.77l0.614-1.983c0.763,0.782,1.515,1.571,2.289,2.345
			c27.087,27.086,59.178,47.349,94.188,59.935l0.007,0.023l0.451,0.146c27.336,9.768,56.444,14.857,86.334,14.857
			c31.658,0,62.434-5.719,91.161-16.649l22.737-8.072l-1.569-1.118c25.116-12.286,48.299-28.771,68.651-49.122
			c7.329-7.329,14.151-15.031,20.465-23.05l0.155-0.001l3.258-4.443c27.365-36.367,44.351-79.069,49.444-124.431
			C511.633,273.562,512.197,261.972,511.937,250.375z M351.512,52.688c1.491,0.704,2.973,1.423,4.448,2.159
			c0.328,0.164,0.653,0.336,0.981,0.501c1.145,0.579,2.287,1.163,3.421,1.76c0.529,0.279,1.052,0.565,1.578,0.848
			c0.93,0.499,1.858,1.002,2.781,1.515c0.577,0.321,1.15,0.647,1.724,0.971c0.869,0.493,1.736,0.99,2.598,1.494
			c0.585,0.342,1.167,0.686,1.749,1.034c0.854,0.51,1.703,1.026,2.55,1.546c0.568,0.35,1.138,0.699,1.703,1.054
			c0.874,0.548,1.744,1.106,2.609,1.666c0.522,0.338,1.047,0.673,1.567,1.014c0.99,0.652,1.973,1.316,2.953,1.984
			c0.384,0.261,0.772,0.517,1.154,0.78c1.353,0.934,2.697,1.881,4.03,2.845c0.306,0.221,0.608,0.45,0.913,0.673
			c1.028,0.75,2.052,1.505,3.067,2.273c0.483,0.365,0.959,0.738,1.439,1.106c0.832,0.639,1.661,1.28,2.483,1.931
			c0.522,0.413,1.039,0.832,1.559,1.248c0.776,0.626,1.549,1.254,2.318,1.89c0.523,0.432,1.045,0.868,1.564,1.306
			c0.76,0.64,1.516,1.287,2.268,1.938c0.508,0.439,1.014,0.878,1.518,1.32c0.773,0.68,1.539,1.37,2.302,2.061
			c0.466,0.422,0.934,0.84,1.396,1.265c0.865,0.796,1.721,1.604,2.574,2.414c0.347,0.329,0.699,0.654,1.045,0.986
			c1.185,1.139,2.358,2.291,3.517,3.456c0.285,0.286,0.564,0.58,0.848,0.868c0.875,0.889,1.748,1.781,2.61,2.686
			c0.1,0.104,0.197,0.212,0.298,0.318h-51.812l-15.914-48.986C351.402,52.639,351.458,52.663,351.512,52.688z M193.067,40.383
			c19.977-5.84,41.092-8.986,62.93-8.986c19.679,0.001,39.137,2.541,57.961,7.552l24.704,76.042l-47.747,73.311l-34.917-25.369
			l-36.148,26.263l-50.223-71.908L193.067,40.383z M315.067,244.588l-22.563,69.44h-73.012l-22.564-69.44l59.069-42.917
			L315.067,244.588z M139.571,63.993c0.04-0.024,0.08-0.049,0.12-0.073c1.381-0.839,2.774-1.66,4.173-2.471
			c0.303-0.174,0.606-0.349,0.91-0.522c1.156-0.661,2.32-1.311,3.488-1.952c0.503-0.275,1.005-0.549,1.51-0.821
			c0.996-0.537,1.997-1.065,3.002-1.586c0.645-0.334,1.289-0.669,1.937-0.997c0.377-0.191,0.758-0.376,1.137-0.565l-15.102,49.548
			l-51.313,0.936C104.019,89.363,120.904,75.354,139.571,63.993z M65.428,137.275l78.924-1.443l50.139,71.789l-34.405,24.997
			l12.94,39.825L97.26,294.591l-65.713-46.38C32.939,207.591,45.167,169.679,65.428,137.275z M60.85,367.089
			c-3.457-6.049-6.645-12.27-9.539-18.651c-8.605-19.14-14.549-39.485-17.587-60.33l42.339,29.881L60.85,367.089z M83.546,399.727
			l23.331-75.297l75.838-22.17l14.007,43.107h45.91v73.668l-64.385,47.685C141.071,452.959,108.506,429.624,83.546,399.727z
			 M297.243,476.792c-0.617,0.114-1.234,0.238-1.851,0.348c-0.387,0.069-0.776,0.126-1.163,0.193
			c-25.53,4.359-51.791,4.307-77.394-0.192l41.644-30.842l41.933,29.886C299.36,476.395,298.301,476.594,297.243,476.792z
			 M338.554,464.883l-64.583-46.028v-73.488h41.303l14.531-44.722l77.039,19.776l24.854,75.32
			C407.399,426.233,375.351,450.288,338.554,464.883z M478.812,284.379c-0.032,0.251-0.068,0.5-0.1,0.751
			c-0.17,1.312-0.357,2.62-0.551,3.925c-0.173,1.149-0.353,2.298-0.544,3.444c-0.058,0.355-0.117,0.709-0.177,1.063
			c-3.782,22.054-10.855,43.532-20.942,63.582c-0.137,0.27-0.266,0.542-0.403,0.811c-0.17,0.334-0.35,0.664-0.521,0.998
			c-0.609,1.175-1.225,2.346-1.854,3.509l-16.231-49.187l41.501-30.442C478.928,283.348,478.878,283.865,478.812,284.379z
			 M415.753,290.354l-76.243-19.573l12.4-38.164l-35.608-25.871l48.07-73.807h79.553c21.663,32.978,34.079,70.667,36.308,110.116
			L415.753,290.354z"/>
	</g>
</g>
</svg>