<?xml version="1.0" encoding="iso-8859-1"?>
<!-- Uploaded to: SVG Repo, www.svgrepo.com, Generator: SVG Repo Mixer Tools -->
<svg fill="#000000" height="800px" width="800px" version="1.1" id="Capa_1" xmlns="http://www.w3.org/2000/svg" xmlns:xlink="http://www.w3.org/1999/xlink" 
	 viewBox="0 0 63.987 63.987" xml:space="preserve">
<g id="Volleyball-ball_1_">
	<path id="Volleyball-ball" d="M59.706,15.991C52.068,2.764,36.35-2.944,22.352,1.482c-0.131,0.013-0.254,0.051-0.368,0.112
		c-2.046,0.674-4.053,1.564-5.991,2.683C0.713,13.101-4.542,32.711,4.281,47.99c5.922,10.254,16.7,15.994,27.769,15.994
		c5.424,0,10.919-1.379,15.944-4.28C63.274,50.879,68.529,31.269,59.706,15.991z M32.337,30.952
		c-0.042-0.086-0.083-0.173-0.152-0.246c-3.586-3.844-7.35-9.211-8.846-15.77c11.367-5.336,23.099-4.462,34.874,2.608
		c0.026,0.016,0.055,0.022,0.082,0.035c2.283,4.164,3.473,8.646,3.659,13.114C52.789,25.137,42.836,25.224,32.337,30.952z
		 M56.048,14.074c-11.151-5.688-22.263-6.081-33.088-1.157c-0.446-2.995-0.396-6.216,0.351-9.636
		C35.26-0.332,48.464,3.878,56.048,14.074z M16.994,6.01c1.341-0.774,2.717-1.432,4.117-1.978
		c-1.728,9.761,1.569,19.418,9.611,28.038c0.08,0.085,0.176,0.141,0.274,0.192c-2.136,5.033-4.86,8.778-8.203,11.266
		c-0.048-0.05-0.086-0.107-0.146-0.147C12.793,36.76,7.999,26.818,8.399,13.831c0.003-0.103-0.024-0.198-0.05-0.292
		C10.654,10.577,13.549,7.999,16.994,6.01z M6.388,16.374c0.264,12.24,5.193,21.752,14.658,28.319
		c-4.166,2.415-9.197,3.097-15.147,2.087C0.356,37.003,0.916,25.379,6.388,16.374z M7.293,49.001
		c1.238,0.147,2.442,0.228,3.608,0.228c10.044,0,17.428-5.467,21.989-16.305c6.648-3.72,12.897-5.072,18.877-4.052
		c-0.011,0.051-0.036,0.096-0.039,0.15c-0.904,14.777-12.188,28.573-26.245,32.091c-0.076,0.019-0.135,0.062-0.202,0.096
		C18.171,59.572,11.672,55.367,7.293,49.001z M46.994,57.971c-5.453,3.149-11.494,4.38-17.342,3.913
		c13.068-4.999,23.126-18.349,24.062-32.592c2.8,0.726,5.545,1.972,8.247,3.757C61.59,43.03,56.263,52.617,46.994,57.971z"/>
</g>
</svg>