<svg width="32" height="32" viewBox="0 0 32 32" xmlns="http://www.w3.org/2000/svg">
  <defs>
    <linearGradient id="ledGradient" x1="0%" y1="0%" x2="100%" y2="100%">
      <stop offset="0%" style="stop-color:#00ffff;stop-opacity:1" />
      <stop offset="100%" style="stop-color:#0066ff;stop-opacity:1" />
    </linearGradient>
    <filter id="glow">
      <feGaussianBlur stdDeviation="1" result="coloredBlur"/>
      <feMerge> 
        <feMergeNode in="coloredBlur"/>
        <feMergeNode in="SourceGraphic"/>
      </feMerge>
    </filter>
  </defs>
  
  <!-- Background circuit board pattern -->
  <rect width="32" height="32" fill="#1a1a2e"/>
  
  <!-- Circuit lines -->
  <path d="M4 8 L28 8 M4 16 L28 16 M4 24 L28 24" stroke="#333" stroke-width="0.5"/>
  <path d="M8 4 L8 28 M16 4 L16 28 M24 4 L24 28" stroke="#333" stroke-width="0.5"/>
  
  <!-- LED dots with glow -->
  <circle cx="8" cy="8" r="2" fill="url(#ledGradient)" filter="url(#glow)"/>
  <circle cx="16" cy="8" r="2" fill="url(#ledGradient)" filter="url(#glow)"/>
  <circle cx="24" cy="8" r="2" fill="url(#ledGradient)" filter="url(#glow)"/>
  
  <circle cx="8" cy="16" r="2" fill="url(#ledGradient)" filter="url(#glow)"/>
  <circle cx="16" cy="16" r="3" fill="url(#ledGradient)" filter="url(#glow)"/>
  <circle cx="24" cy="16" r="2" fill="url(#ledGradient)" filter="url(#glow)"/>
  
  <circle cx="8" cy="24" r="2" fill="url(#ledGradient)" filter="url(#glow)"/>
  <circle cx="16" cy="24" r="2" fill="url(#ledGradient)" filter="url(#glow)"/>
  <circle cx="24" cy="24" r="2" fill="url(#ledGradient)" filter="url(#glow)"/>
  
  <!-- Border frame -->
  <rect x="2" y="2" width="28" height="28" fill="none" stroke="url(#ledGradient)" stroke-width="1" rx="2"/>
</svg>
