<svg width="48" height="48" viewBox="0 0 48 48" xmlns="http://www.w3.org/2000/svg">
  <defs>
    <linearGradient id="ledGradient" x1="0%" y1="0%" x2="100%" y2="100%">
      <stop offset="0%" style="stop-color:#00ffff;stop-opacity:1" />
      <stop offset="100%" style="stop-color:#0066ff;stop-opacity:1" />
    </linearGradient>
    <filter id="glow">
      <feGaussianBlur stdDeviation="1.5" result="coloredBlur"/>
      <feMerge> 
        <feMergeNode in="coloredBlur"/>
        <feMergeNode in="SourceGraphic"/>
      </feMerge>
    </filter>
  </defs>
  
  <!-- Background circuit board pattern -->
  <rect width="48" height="48" fill="#1a1a2e"/>
  
  <!-- Circuit lines -->
  <path d="M6 12 L42 12 M6 24 L42 24 M6 36 L42 36" stroke="#333" stroke-width="0.8"/>
  <path d="M12 6 L12 42 M24 6 L24 42 M36 6 L36 42" stroke="#333" stroke-width="0.8"/>
  
  <!-- LED dots with glow -->
  <circle cx="12" cy="12" r="3" fill="url(#ledGradient)" filter="url(#glow)"/>
  <circle cx="24" cy="12" r="3" fill="url(#ledGradient)" filter="url(#glow)"/>
  <circle cx="36" cy="12" r="3" fill="url(#ledGradient)" filter="url(#glow)"/>
  
  <circle cx="12" cy="24" r="3" fill="url(#ledGradient)" filter="url(#glow)"/>
  <circle cx="24" cy="24" r="4" fill="url(#ledGradient)" filter="url(#glow)"/>
  <circle cx="36" cy="24" r="3" fill="url(#ledGradient)" filter="url(#glow)"/>
  
  <circle cx="12" cy="36" r="3" fill="url(#ledGradient)" filter="url(#glow)"/>
  <circle cx="24" cy="36" r="3" fill="url(#ledGradient)" filter="url(#glow)"/>
  <circle cx="36" cy="36" r="3" fill="url(#ledGradient)" filter="url(#glow)"/>
  
  <!-- Border frame -->
  <rect x="3" y="3" width="42" height="42" fill="none" stroke="url(#ledGradient)" stroke-width="1.5" rx="3"/>
</svg>
