<?xml version="1.0" encoding="UTF-8"?>
<svg width="24" height="24" viewBox="0 0 24 24" xmlns="http://www.w3.org/2000/svg">
  <path d="M8.985 2.596v17.548l3.915 1.261V6.688c0-.69.304-1.151.794-.991.636.181.795.809.795 1.501v5.678c2.242 1.079 4.356.261 4.356-2.516 0-2.837-1.33-4.415-4.356-5.318-1.502-.446-3.504-1.005-5.504-1.447zm7.778 16.733c-2.758 1.104-5.801 1.102-8.582.004-.113-.049-.17-.151-.119-.244l.199-.411c.041-.084.15-.132.246-.087a19.176 19.176 0 0 0 8.159 0 .228.228 0 0 1 .246.087l.199.411c.05.093-.007.195-.119.244l-.229-.014zm3.251-2.115V6.133l-2.089-.679S16.238 4.563 16.134 3.719c0 0-.203-1.488.96-.568 0 0 2.053 1.415 2.953 1.891v13.114c.206.589-.356.634-.896.571l-.138-.062v-1.051zm-3.457 1.51c-.389.091-.809.019-1.196-.164-.387-.182-.714-.425-.975-.726-.261-.3-.448-.64-.572-1.016-.123-.376-.18-.765-.17-1.167.012-.402.089-.788.231-1.157.142-.369.342-.698.601-.983.259-.284.57-.511.93-.674.36-.164.751-.246 1.173-.246.421 0 .812.082 1.173.246.36.163.671.39.93.674.259.285.459.614.601.983.142.369.219.755.231 1.157.01.402-.047.791-.17 1.167-.124.376-.311.716-.572 1.016-.261.301-.588.544-.975.726-.387.183-.807.255-1.196.164h.056zm0-1.891c.129.042.259.042.388 0 .129-.042.237-.104.324-.186.087-.082.156-.177.206-.285.05-.108.076-.22.076-.337s-.025-.229-.076-.337c-.05-.108-.119-.203-.206-.285-.087-.082-.195-.144-.324-.186-.129-.042-.259-.042-.388 0-.129.042-.237.104-.324.186-.087.082-.156.177-.206.285-.05.108-.076.22-.076.337s.025.229.076.337c.05.108.119.203.206.285.087.082.195.144.324.186zm-6.015-1.891h-.001z"/>
</svg>
