<?xml version="1.0" encoding="UTF-8"?>
<svg width="24" height="24" viewBox="0 0 24 24" xmlns="http://www.w3.org/2000/svg">
  <path d="M9.604 7.244h4.792V5.314H9.604zm0 11.442h4.792v-1.93H9.604zM22.411 0H1.589A1.589 1.589 0 0 0 0 1.589v20.822A1.589 1.589 0 0 0 1.589 24h20.822A1.589 1.589 0 0 0 24 22.411V1.589A1.589 1.589 0 0 0 22.411 0zm-1.589 15.36c0 .877-.711 1.588-1.588 1.588h-3.205v2.927c0 .439-.355.794-.794.794H8.765a.794.794 0 0 1-.794-.794v-2.927H4.766c-.877 0-1.588-.711-1.588-1.588V8.64c0-.877.711-1.588 1.588-1.588h3.205V4.125c0-.439.355-.794.794-.794h6.47c.439 0 .794.355.794.794v2.927h3.205c.877 0 1.588.711 1.588 1.588v6.72z"/>
</svg>
