<?xml version="1.0" encoding="UTF-8"?>
<svg width="24" height="24" viewBox="0 0 24 24" xmlns="http://www.w3.org/2000/svg">
  <path d="M11.392 21.314c-2.512-0.2-4.424-1.061-6.326-2.768-0.635-0.57-1.783-1.721-1.783-1.783 0-0.187 2.976-4.843 3.932-6.171 0.416-0.576 0.849-1.067 0.945-1.067 0.048 0 0.581 0.643 1.187 1.428 2.139 2.776 3.903 4.57 5.629 5.727l0.792 0.531-0.672 0.744c-0.888 0.983-1.471 1.519-2.192 2.016-1 0.691-1.456 0.775-1.512 0.279v0z M15.392 19.674c-0.848-0.583-1.823-1.468-2.408-2.179l-0.408-0.496 0.768-0.531c1.848-1.276 3.544-3.096 5.536-5.933 0.597-0.849 1.123-1.544 1.171-1.544 0.128 0 0.608 0.523 1.056 1.152 0.949 1.331 3.916 5.987 3.916 6.165 0 0.067-0.523 0.619-1.163 1.228-1.936 1.84-3.688 2.664-6.157 2.891l-0.371 0.035-1.939-0.789z M7.584 7.204c-2.024-2.96-3.728-5.592-3.728-5.776 0-0.405 3.336-1.428 4.832-1.428 1.512 0 3.952 0.581 5.211 1.244 0.621 0.328 0.701 0.405 0.549 0.512-0.096 0.067-0.96 0.763-1.923 1.544l-1.752 1.428-0.549-0.067c-0.952-0.108-2.024 0.349-2.877 1.228l-0.368 0.384 0.605-0.931v0z M15.368 4.661c-0.925-0.72-1.703-1.356-1.728-1.416-0.067-0.147 0.904-0.571 2.064-0.896 1.992-0.557 4.592-0.557 6.584 0 1.155 0.325 2.141 0.755 2.075 0.896-0.024 0.061-0.832 0.72-1.796 1.471l-1.752 1.363-0.549 0.067c-0.949 0.108-2.024 0.349-2.877 1.228l-0.368 0.384-1.652-3.097z"/>
</svg>
