<?xml version="1.0" encoding="iso-8859-1"?>
<!-- Uploaded to: SVG Repo, www.svgrepo.com, Generator: SVG Repo Mixer Tools -->
<svg fill="#000000" height="800px" width="800px" version="1.1" id="Layer_1" xmlns="http://www.w3.org/2000/svg" xmlns:xlink="http://www.w3.org/1999/xlink" 
	 viewBox="0 0 512 512" xml:space="preserve">
<g>
	<g>
		<path d="M439.652,16.696c0-9.22-7.475-16.696-16.696-16.696c-9.22,0-16.696,7.475-16.696,16.696
			c0,82.854-67.407,150.261-150.261,150.261S105.739,99.549,105.739,16.696C105.739,7.475,98.264,0,89.044,0
			c-9.22,0-16.696,7.475-16.696,16.696c0,95.638,73.486,174.422,166.957,182.885v34.158h-16.696c-9.22,0-16.696,7.475-16.696,16.696
			v50.087h-50.087c-9.22,0-16.696,7.475-16.696,16.696V384c0,9.22,7.475,16.696,16.696,16.696h50.087v94.609
			c0,9.22,7.475,16.696,16.696,16.696h66.783c9.22,0,16.696-7.475,16.696-16.696v-94.609h50.087c9.22,0,16.696-7.475,16.696-16.696
			v-66.783c0-9.22-7.475-16.696-16.696-16.696h-50.087v-50.087c0-9.22-7.475-16.696-16.696-16.696h-16.696v-34.158
			C366.166,191.117,439.652,112.334,439.652,16.696z M289.391,333.913h50.087v33.391h-50.087c-9.22,0-16.696,7.475-16.696,16.696
			v94.609h-33.391V384c0-9.22-7.475-16.696-16.696-16.696h-50.087v-33.391h50.087c9.22,0,16.696-7.475,16.696-16.696V267.13h33.391
			v50.087C272.696,326.438,280.171,333.913,289.391,333.913z"/>
	</g>
</g>
</svg>