<?xml version="1.0" encoding="iso-8859-1"?>
<!-- Uploaded to: SVG Repo, www.svgrepo.com, Generator: SVG Repo Mixer Tools -->
<svg fill="#000000" height="800px" width="800px" version="1.1" id="Layer_1" xmlns="http://www.w3.org/2000/svg" xmlns:xlink="http://www.w3.org/1999/xlink" 
	 viewBox="0 0 512 512" xml:space="preserve">
<g>
	<g>
		<path d="M406.261,116.87h-83.478V33.391C322.783,14.979,307.803,0,289.391,0h-66.783c-18.412,0-33.391,14.979-33.391,33.391
			v83.478h-83.478c-18.412,0-33.391,14.979-33.391,33.391v66.783c0,18.412,14.979,33.391,33.391,33.391h83.478v228.174
			c0,18.412,14.979,33.391,33.391,33.391h66.783c18.412,0,33.391-14.979,33.391-33.391V250.435h83.478
			c18.412,0,33.391-14.979,33.391-33.391v-66.783C439.652,131.849,424.673,116.87,406.261,116.87z M406.261,217.043H306.087
			c-9.22,0-16.696,7.475-16.696,16.696v244.87h-66.783v-244.87c0-9.22-7.475-16.696-16.696-16.696H105.739v-66.783h100.174
			c9.22,0,16.696-7.475,16.696-16.696V33.391h66.783v100.174c0,9.22,7.475,16.696,16.696,16.696h100.174V217.043z"/>
	</g>
</g>
</svg>