<?xml version="1.0" encoding="utf-8"?>

<!DOCTYPE svg PUBLIC "-//W3C//DTD SVG 1.1//EN" "http://www.w3.org/Graphics/SVG/1.1/DTD/svg11.dtd">
<!-- Uploaded to: SVG Repo, www.svgrepo.com, Generator: SVG Repo Mixer Tools -->
<svg height="800px" width="800px" version="1.1" id="_x32_" xmlns="http://www.w3.org/2000/svg" xmlns:xlink="http://www.w3.org/1999/xlink" 
	 viewBox="0 0 512 512"  xml:space="preserve">
<style type="text/css">
	.st0{fill:#000000;}
</style>
<g>
	<path class="st0" d="M376.566,143.029c-15.664-7.236-67.486-4.826-84.351-13.255c-16.882-8.437-42.184-9.646-65.077-10.846
		c-29.078-1.526-54.23,14.456-67.486,15.665c-13.256,1.2-38.557,8.436-50.613,22.892c-10.846,7.228-20.483,20.492-20.483,20.492
		h330.187C418.743,177.977,392.232,150.257,376.566,143.029z"/>
	<path class="st0" d="M511.055,366.521L470.672,238.36c-6.053-19.199-23.852-32.255-43.985-32.255H85.305
		c-20.126,0-37.933,13.056-43.977,32.255L0.945,366.521c-1.959,6.228-0.833,13.014,3.026,18.283c3.86,5.26,9.996,8.37,16.524,8.37
		h471.011c6.528,0,12.664-3.11,16.523-8.37C511.889,379.535,513.014,372.749,511.055,366.521z M363.553,323.537
		c0,15.448-12.522,27.962-27.962,27.962c-15.44,0-27.962-12.514-27.962-27.962c0-0.726,0.059-1.442,0.108-2.151
		c-3.351-3.46-7.67-6.578-12.338-6.578c-10.479,0-20.966,0-20.966,0s-52.414,0-62.901,0c-4.669,0-8.979,3.118-12.338,6.578
		c0.05,0.709,0.108,1.426,0.108,2.151c0,15.448-12.513,27.962-27.962,27.962c-15.44,0-27.953-12.514-27.953-27.962
		c0-10.529,5.827-19.692,14.431-24.46c-8.604-4.76-14.431-13.922-14.431-24.46c0-15.44,12.513-27.953,27.953-27.953
		c14.481,0,26.386,10.996,27.82,25.093c8.878,9.846,55.456,6.353,75.273,6.353c18.899,0,23.61,2.834,33.305-5.561
		c1.067-14.472,13.114-25.885,27.853-25.885c15.44,0,27.962,12.513,27.962,27.953c0,10.538-5.836,19.7-14.431,24.46
		C357.717,303.846,363.553,313.008,363.553,323.537z"/>
</g>
</svg>