<?xml version="1.0" encoding="UTF-8" standalone="no"?>
<!-- Created with Inkscape (http://www.inkscape.org/) -->

<svg
   width="135.46666mm"
   height="135.46669mm"
   viewBox="0 0 135.46666 135.46669"
   version="1.1"
   id="svg1"
   xml:space="preserve"
   inkscape:export-filename="test.svg"
   inkscape:export-xdpi="96"
   inkscape:export-ydpi="96"
   xmlns:inkscape="http://www.inkscape.org/namespaces/inkscape"
   xmlns:sodipodi="http://sodipodi.sourceforge.net/DTD/sodipodi-0.dtd"
   xmlns="http://www.w3.org/2000/svg"
   xmlns:svg="http://www.w3.org/2000/svg"><sodipodi:namedview
     id="namedview1"
     pagecolor="#505050"
     bordercolor="#ffffff"
     borderopacity="1"
     inkscape:showpageshadow="0"
     inkscape:pageopacity="0"
     inkscape:pagecheckerboard="1"
     inkscape:deskcolor="#505050"
     inkscape:document-units="mm"><inkscape:page
       x="0"
       y="-1.3629781e-12"
       width="135.46666"
       height="135.46667"
       id="page2"
       margin="0"
       bleed="0" /></sodipodi:namedview><defs
     id="defs1" /><g
     inkscape:label="Layer 1"
     inkscape:groupmode="layer"
     id="layer1"
     transform="translate(-40.745834,-75.141677)"><path
       style="fill:#000000"
       d="m 103.31979,210.45353 c -0.43656,-0.0602 -1.92484,-0.23823 -3.30729,-0.39549 -14.466959,-1.64577 -28.680204,-8.62041 -39.388084,-19.32829 -10.716162,-10.71616 -17.225103,-23.93744 -19.391068,-39.38808 -0.521793,-3.72215 -0.452664,-13.89651 0.120446,-17.72709 2.250872,-15.04448 8.793964,-28.18105 19.238935,-38.626019 10.398761,-10.39876 23.292653,-16.843218 38.47992,-19.232534 4.152841,-0.653339 14.398141,-0.650825 18.799231,0.0046 14.92723,2.223066 28.01156,8.775897 38.4837,19.273227 10.71974,10.745516 17.2161,23.952576 19.36773,39.374456 0.46093,3.30377 0.46093,13.62957 0,16.93334 -2.1482,15.3973 -8.66507,28.64606 -19.36773,39.37446 -10.42958,10.45467 -23.70774,17.11619 -38.35141,19.24052 -2.86334,0.41538 -12.83115,0.75267 -14.68438,0.49688 z m 1.5875,-29.72711 c 7.40826,-1.93754 13.73771,-7.55184 16.38673,-14.53524 1.63325,-4.30562 1.61068,-3.99264 1.51472,-21.00108 -0.0482,-8.54934 -0.004,-15.54427 0.098,-15.54427 0.10212,0 0.97559,0.52188 1.94104,1.15973 4.64927,3.07165 11.0798,5.19027 15.75371,5.19027 h 1.74437 v -6.17971 -6.17971 l -1.82077,-0.16923 c -9.20042,-0.85509 -16.52256,-8.21028 -17.62046,-17.69999 l -0.17601,-1.52135 h -6.19867 -6.19867 l -0.005,26.92135 c -0.005,29.3422 0.007,29.08414 -1.50463,31.87482 -2.256,4.16444 -7.26403,6.62556 -11.8749,5.83575 -8.560951,-1.46643 -12.474104,-11.3135 -7.247096,-18.23662 1.279259,-1.69437 3.703094,-3.36571 5.739686,-3.95776 1.540243,-0.44776 4.074502,-0.55773 5.82955,-0.25297 l 1.12448,0.19527 v -6.34572 -6.34572 l -2.05052,-0.17895 c -6.466271,-0.56432 -13.533051,2.01074 -18.418041,6.71134 -3.090042,2.9734 -4.971506,6.01083 -6.40851,10.34587 -0.693345,2.09163 -0.74642,2.55436 -0.758691,6.61458 -0.01147,3.79654 0.06625,4.64 0.596202,6.47043 2.544663,8.78908 9.890215,15.52345 18.767054,17.20556 2.832851,0.53681 7.980736,0.35705 10.786046,-0.37665 z"
       id="path1" /></g></svg>
