<svg viewBox="0 0 24 24" fill="currentColor">
  <path d="M22.46 6c-.85.38-1.78.64-2.75.76 1-.6 1.76-1.55 2.12-2.68-.93.55-1.96.95-3.06 1.17-.88-.94-2.13-1.53-3.51-1.53-2.66 0-4.81 2.16-4.81 4.81 0 .38.04.75.13 1.1-4-.2-7.57-2.12-9.95-5.04-.42.72-.66 1.55-.66 2.44 0 1.67.85 3.14 2.14 4-.79-.02-1.53-.24-2.18-.6v.06c0 2.33 1.66 4.28 3.86 4.72-.4.11-.83.17-1.27.17-.31 0-.62-.03-.92-.08.62 1.94 2.42 3.35 4.55 3.39-1.67 1.31-3.77 2.09-6.05 2.09-.39 0-.78-.02-1.17-.07 2.18 1.4 4.77 2.21 7.55 2.21 9.06 0 14.01-7.5 14.01-14.01 0-.21 0-.42-.01-.63.96-.69 1.79-1.56 2.45-2.55z"/>
</svg>
